<svg width="25" height="24" viewBox="0 0 25 24" fill="none" xmlns="http://www.w3.org/2000/svg">
<path d="M8.50001 7.59407V5.82498C9.16722 5.58921 9.72956 5.12528 10.0876 4.51518C10.4457 3.90509 10.5765 3.18811 10.4568 2.49098C10.3371 1.79384 9.97473 1.16144 9.43367 0.705529C8.8926 0.249623 8.20769 -0.000427246 7.50001 -0.000427246C6.79232 -0.000427246 6.10741 0.249623 5.56635 0.705529C5.02528 1.16144 4.66288 1.79384 4.54321 2.49098C4.42354 3.18811 4.5543 3.90509 4.91237 4.51518C5.27045 5.12528 5.83279 5.58921 6.50001 5.82498V8.00785C6.50006 8.27291 6.60546 8.52709 6.79301 8.71449L9.50001 11.4201V23.0001C9.50001 23.2652 9.60536 23.5194 9.7929 23.7068C9.98044 23.8943 10.2348 23.9996 10.5 23.9996C10.7652 23.9996 11.0196 23.8943 11.2071 23.7068C11.3946 23.5194 11.5 23.2652 11.5 23.0001V11.0063C11.4999 10.7412 11.3946 10.4871 11.207 10.2997L8.50001 7.59407Z" fill="#722ED1"/>
<path d="M4.50001 16.5894V14.8203C5.16722 14.5846 5.72956 14.1206 6.08764 13.5105C6.44572 12.9004 6.57647 12.1835 6.4568 11.4863C6.33713 10.7892 5.97474 10.1568 5.43367 9.70089C4.8926 9.24498 4.20769 8.99493 3.50001 8.99493C2.79232 8.99493 2.10741 9.24498 1.56635 9.70089C1.02528 10.1568 0.662882 10.7892 0.543211 11.4863C0.423539 12.1835 0.554298 12.9004 0.912375 13.5105C1.27045 14.1206 1.83279 14.5846 2.50001 14.8203V17.0032C2.50006 17.2683 2.60546 17.5225 2.79301 17.7098L5.50001 20.4154V23.0001C5.50001 23.2652 5.60536 23.5194 5.7929 23.7069C5.98044 23.8943 6.23479 23.9996 6.50001 23.9996C6.76522 23.9996 7.01958 23.8943 7.20711 23.7069C7.39465 23.5194 7.50001 23.2652 7.50001 23.0001V20.0017C7.49995 19.7366 7.39456 19.4824 7.20701 19.295L4.50001 16.5894Z" fill="#722ED1"/>
<path d="M18.5 8.00785V5.82498C19.1672 5.58921 19.7296 5.12528 20.0876 4.51518C20.4457 3.90509 20.5765 3.18811 20.4568 2.49098C20.3371 1.79384 19.9747 1.16144 19.4337 0.705529C18.8926 0.249623 18.2077 -0.000427246 17.5 -0.000427246C16.7923 -0.000427246 16.1074 0.249623 15.5663 0.705529C15.0253 1.16144 14.6629 1.79384 14.5432 2.49098C14.4235 3.18811 14.5543 3.90509 14.9124 4.51518C15.2705 5.12528 15.8328 5.58921 16.5 5.82498V7.59407L13.793 10.2997C13.6055 10.4871 13.5001 10.7412 13.5 11.0063V23.0001C13.5 23.2652 13.6054 23.5194 13.7929 23.7068C13.9804 23.8943 14.2348 23.9996 14.5 23.9996C14.7652 23.9996 15.0196 23.8943 15.2071 23.7068C15.3947 23.5194 15.5 23.2652 15.5 23.0001V11.4201L18.207 8.71449C18.3946 8.52709 18.5 8.27291 18.5 8.00785Z" fill="#722ED1"/>
<path d="M24.5 12.0058C24.5023 11.4556 24.353 10.9153 24.0686 10.4442C23.7842 9.9731 23.3755 9.5893 22.8874 9.33484C22.3993 9.08037 21.8505 8.96506 21.3012 9.00153C20.7519 9.03799 20.2232 9.22483 19.7731 9.54158C19.3229 9.85832 18.9686 10.2928 18.749 10.7973C18.5294 11.3019 18.453 11.8571 18.5281 12.4022C18.6031 12.9473 18.8268 13.4613 19.1746 13.8878C19.5224 14.3143 19.981 14.6369 20.5 14.8203V16.5894L17.793 19.295C17.6055 19.4824 17.5001 19.7366 17.5 20.0017V23.0001C17.5 23.2652 17.6054 23.5194 17.7929 23.7068C17.9804 23.8943 18.2348 23.9996 18.5 23.9996C18.7652 23.9996 19.0196 23.8943 19.2071 23.7068C19.3947 23.5194 19.5 23.2652 19.5 23.0001V20.4154L22.207 17.7098C22.3946 17.5224 22.5 17.2683 22.5 17.0032V14.8203C23.0829 14.6144 23.5879 14.2334 23.9459 13.7296C24.3039 13.2258 24.4974 12.6237 24.5 12.0058V12.0058Z" fill="#722ED1"/>
</svg>
